<?xml version="1.0" encoding="utf-8"?>
<!-- Generator: Adobe Illustrator 16.0.4, SVG Export Plug-In . SVG Version: 6.00 Build 0)  -->
<!DOCTYPE svg PUBLIC "-//W3C//DTD SVG 1.1//EN" "http://www.w3.org/Graphics/SVG/1.1/DTD/svg11.dtd">
<svg version="1.1" id="Capa_1" xmlns="http://www.w3.org/2000/svg" xmlns:xlink="http://www.w3.org/1999/xlink" x="0px" y="0px"
	 width="64px" height="64px" viewBox="0 0 64 64" enable-background="new 0 0 64 64" xml:space="preserve">
<g>
	<path d="M18.487,23.193H13.45c-0.861,0-1.561,0.7-1.561,1.561v5.302c0,0.86,0.7,1.56,1.561,1.56h5.037
		c0.861,0,1.561-0.7,1.561-1.56v-5.302C20.048,23.893,19.348,23.193,18.487,23.193z M19.048,30.056c0,0.309-0.251,0.56-0.561,0.56
		H13.45c-0.31,0-0.561-0.251-0.561-0.56v-5.302c0-0.31,0.251-0.561,0.561-0.561h5.037c0.31,0,0.561,0.251,0.561,0.561V30.056z"/>
	<path d="M29.49,23.193h-5.038c-0.861,0-1.561,0.7-1.561,1.561v5.302c0,0.86,0.7,1.56,1.561,1.56h5.038c0.86,0,1.56-0.7,1.56-1.56
		v-5.302C31.05,23.893,30.35,23.193,29.49,23.193z M30.05,30.056c0,0.309-0.251,0.56-0.56,0.56h-5.038
		c-0.31,0-0.561-0.251-0.561-0.56v-5.302c0-0.31,0.251-0.561,0.561-0.561h5.038c0.309,0,0.56,0.251,0.56,0.561V30.056z"/>
	<path d="M44.337,18.56h-5.038c-0.86,0-1.561,0.7-1.561,1.56v5.302c0,0.861,0.7,1.561,1.561,1.561h5.038c0.86,0,1.56-0.7,1.56-1.561
		V20.12C45.896,19.26,45.197,18.56,44.337,18.56z M44.896,25.422c0,0.31-0.251,0.561-0.56,0.561h-5.038
		c-0.31,0-0.561-0.251-0.561-0.561V20.12c0-0.309,0.251-0.56,0.561-0.56h5.038c0.309,0,0.56,0.251,0.56,0.56V25.422z"/>
	<path d="M54.814,18.56h-5.039c-0.86,0-1.561,0.7-1.561,1.56v5.302c0,0.861,0.7,1.561,1.561,1.561h5.039c0.86,0,1.56-0.7,1.56-1.561
		V20.12C56.374,19.26,55.675,18.56,54.814,18.56z M55.374,25.422c0,0.31-0.251,0.561-0.56,0.561h-5.039
		c-0.31,0-0.561-0.251-0.561-0.561V20.12c0-0.309,0.251-0.56,0.561-0.56h5.039c0.309,0,0.56,0.251,0.56,0.56V25.422z"/>
	<path d="M18.487,33.752H13.45c-0.861,0-1.561,0.7-1.561,1.561v5.304c0,0.86,0.7,1.561,1.561,1.561h5.037
		c0.861,0,1.561-0.7,1.561-1.561v-5.304C20.048,34.452,19.348,33.752,18.487,33.752z M19.048,40.616c0,0.31-0.251,0.561-0.561,0.561
		H13.45c-0.31,0-0.561-0.251-0.561-0.561v-5.304c0-0.31,0.251-0.561,0.561-0.561h5.037c0.31,0,0.561,0.251,0.561,0.561V40.616z"/>
	<path d="M29.49,33.752h-5.038c-0.861,0-1.561,0.7-1.561,1.561v5.304c0,0.86,0.7,1.561,1.561,1.561h5.038
		c0.86,0,1.56-0.7,1.56-1.561v-5.304C31.05,34.452,30.35,33.752,29.49,33.752z M30.05,40.616c0,0.31-0.251,0.561-0.56,0.561h-5.038
		c-0.31,0-0.561-0.251-0.561-0.561v-5.304c0-0.31,0.251-0.561,0.561-0.561h5.038c0.309,0,0.56,0.251,0.56,0.561V40.616z"/>
	<path d="M35.721,42.177h5.036c0.858,0,1.559-0.699,1.562-1.561v-5.304c0-0.86-0.7-1.561-1.562-1.561h-5.036
		c-0.861,0-1.562,0.7-1.562,1.561v5.304C34.159,41.477,34.859,42.177,35.721,42.177z M35.159,35.312c0-0.31,0.252-0.561,0.562-0.561
		h5.036c0.31,0,0.562,0.251,0.562,0.561v5.302c-0.001,0.311-0.253,0.562-0.562,0.562h-5.036c-0.31,0-0.562-0.251-0.562-0.561V35.312
		z"/>
	<path d="M40.757,53.021c0.858,0,1.559-0.7,1.562-1.562v-5.303c0-0.861-0.7-1.562-1.562-1.562h-5.036
		c-0.861,0-1.562,0.7-1.562,1.562v5.303c0,0.861,0.7,1.562,1.562,1.562H40.757z M35.159,51.46v-5.303
		c0-0.31,0.252-0.562,0.562-0.562h5.036c0.31,0,0.562,0.252,0.562,0.562v5.301c-0.001,0.311-0.253,0.563-0.562,0.563h-5.036
		C35.411,52.021,35.159,51.77,35.159,51.46z"/>
	<path d="M29.49,44.596h-5.038c-0.861,0-1.561,0.7-1.561,1.562v5.303c0,0.861,0.7,1.562,1.561,1.562h5.038
		c0.86,0,1.56-0.7,1.56-1.562v-5.303C31.05,45.296,30.35,44.596,29.49,44.596z M30.05,51.46c0,0.31-0.251,0.562-0.56,0.562h-5.038
		c-0.31,0-0.561-0.252-0.561-0.562v-5.303c0-0.31,0.251-0.562,0.561-0.562h5.038c0.309,0,0.56,0.252,0.56,0.562V51.46z"/>
	<path d="M12.07,18.426c0.041-0.09,0.047-0.185,0.018-0.288l0.008,0.021c-0.004-0.038-0.008-0.082-0.008-0.131
		c0-0.048-0.002-0.092-0.008-0.131c-0.009-0.112-0.016-0.225-0.021-0.34c-0.005-0.114-0.008-0.232-0.008-0.354
		c0-0.03-0.001-0.064-0.004-0.103c-0.001-0.039-0.003-0.08-0.003-0.124v-0.292c0.204-0.019,0.393-0.031,0.562-0.036
		s0.345-0.007,0.525-0.007c0.083,0,0.162,0.001,0.24,0.004c0.078,0.002,0.158,0.003,0.242,0.003h0.445v0.022
		c0,0.023-0.002,0.05-0.004,0.08c-0.003,0.029-0.004,0.056-0.004,0.08c0.01,0.38,0.019,0.699,0.033,0.957
		c0.011,0.259,0.033,0.465,0.065,0.621c0.032,0.156,0.075,0.268,0.132,0.336c0.054,0.068,0.134,0.102,0.237,0.102
		c0.005,0,0.015,0.001,0.032,0.004c0.018,0.001,0.033,0.003,0.049,0.003c0.052,0.01,0.105,0.012,0.156,0.008
		c0.051-0.006,0.086-0.027,0.106-0.066c0.111-0.059,0.184-0.135,0.215-0.227c0.033-0.093,0.048-0.195,0.048-0.307
		c0-0.053-0.003-0.103-0.007-0.149c-0.006-0.046-0.01-0.089-0.015-0.128c-0.03-0.146-0.049-0.306-0.062-0.479
		c-0.011-0.172-0.019-0.362-0.019-0.566v-0.387c0-0.559,0.007-1,0.023-1.322c0.014-0.322,0.029-0.562,0.047-0.723
		c0.018-0.16,0.032-0.26,0.048-0.299c0.015-0.039,0.022-0.061,0.022-0.066l0.017-0.05c0.01-0.098-0.012-0.175-0.066-0.234
		c-0.054-0.058-0.116-0.097-0.182-0.117c-0.06-0.024-0.129-0.035-0.212-0.032c-0.083,0.002-0.153,0.016-0.212,0.04
		c-0.112,0.024-0.195,0.061-0.252,0.109c-0.056,0.049-0.095,0.103-0.117,0.164c-0.021,0.061-0.032,0.127-0.028,0.198
		c0,0.07,0.007,0.14,0.017,0.208c0.009,0.039,0.016,0.063,0.019,0.073c0.002,0.009,0,0.027-0.004,0.051
		c0,0.239-0.006,0.458-0.018,0.658c-0.014,0.199-0.025,0.376-0.033,0.532v0.037h-0.768c-0.228,0-0.449,0.003-0.664,0.007
		c-0.215,0.005-0.419,0.015-0.613,0.03c0-0.04,0.002-0.073,0.003-0.099c0.003-0.027,0.004-0.051,0.004-0.07
		c0-0.024,0.001-0.049,0.003-0.076c0.004-0.027,0.005-0.06,0.005-0.099c0.009-0.224,0.02-0.439,0.032-0.646
		c0.013-0.207,0.025-0.388,0.041-0.544c0.004-0.015,0.006-0.043,0.004-0.084c-0.004-0.041-0.007-0.083-0.011-0.124
		c-0.006-0.041-0.011-0.079-0.015-0.113c-0.006-0.034-0.008-0.054-0.008-0.059c-0.015-0.024-0.039-0.052-0.072-0.083
		c-0.035-0.033-0.078-0.06-0.129-0.081c-0.051-0.022-0.112-0.036-0.182-0.041c-0.072-0.006-0.15,0.005-0.238,0.029
		c-0.157,0.044-0.255,0.128-0.299,0.252c-0.045,0.124-0.066,0.262-0.066,0.413c0,0.039,0.001,0.075,0.004,0.109
		c0.002,0.035,0.004,0.071,0.004,0.11c0.004,0.025,0.008,0.064,0.008,0.117c0,0.053,0,0.093,0,0.117
		c-0.016,0.263-0.027,0.523-0.037,0.782c-0.01,0.258-0.015,0.526-0.015,0.803v0.555c0,0.156,0.001,0.31,0.003,0.46
		c0.002,0.152,0.007,0.295,0.012,0.431c0.004,0.136,0.011,0.263,0.018,0.38c0.008,0.116,0.019,0.216,0.034,0.299
		c0.014,0.092,0.054,0.168,0.12,0.226c0.066,0.058,0.147,0.088,0.244,0.088c0.038,0,0.096-0.019,0.172-0.055
		c0.076-0.036,0.149-0.088,0.219-0.153C11.972,18.595,12.029,18.516,12.07,18.426z"/>
	<path d="M16.2,18.183c0.193,0.222,0.418,0.396,0.679,0.523c0.261,0.126,0.542,0.189,0.843,0.189c0.322,0,0.62-0.071,0.896-0.212
		c0.274-0.141,0.514-0.333,0.722-0.577c0.206-0.243,0.372-0.531,0.493-0.865c0.122-0.333,0.187-0.692,0.197-1.077l-0.007,0.029
		c0.005-0.024,0.004-0.084-0.004-0.179c-0.006-0.095-0.019-0.203-0.036-0.325s-0.038-0.249-0.065-0.38
		c-0.028-0.131-0.057-0.245-0.092-0.343c-0.073-0.2-0.174-0.381-0.307-0.544c-0.131-0.163-0.281-0.302-0.451-0.416
		c-0.171-0.115-0.358-0.204-0.559-0.267c-0.203-0.063-0.416-0.095-0.641-0.095c-0.317,0-0.612,0.073-0.887,0.216
		c-0.275,0.144-0.517,0.34-0.726,0.591c-0.209,0.252-0.374,0.546-0.492,0.884c-0.121,0.339-0.18,0.702-0.18,1.092
		c0,0.346,0.055,0.67,0.164,0.971C15.856,17.7,16.008,17.961,16.2,18.183z M16.575,15.569c0.065-0.221,0.155-0.412,0.272-0.57
		c0.117-0.158,0.256-0.282,0.415-0.372c0.162-0.09,0.342-0.135,0.542-0.135c0.266,0,0.5,0.055,0.699,0.164
		c0.201,0.11,0.36,0.318,0.477,0.625c0.033,0.092,0.059,0.21,0.08,0.354c0.018,0.144,0.034,0.293,0.043,0.448
		c0.01,0.273-0.015,0.526-0.072,0.76c-0.059,0.233-0.147,0.437-0.264,0.609c-0.117,0.173-0.258,0.308-0.424,0.405
		c-0.166,0.098-0.351,0.146-0.555,0.146c-0.199,0-0.38-0.044-0.541-0.134c-0.16-0.09-0.297-0.212-0.408-0.365
		c-0.112-0.154-0.2-0.333-0.264-0.541c-0.063-0.207-0.094-0.429-0.094-0.668C16.481,16.032,16.513,15.79,16.575,15.569z"/>
	<path d="M22.95,18.026v0.007c-0.021-0.131-0.036-0.279-0.048-0.445c-0.011-0.165-0.02-0.334-0.025-0.503
		c-0.005-0.171-0.006-0.336-0.006-0.497c0-0.166,0-0.317,0-0.453c0-0.147,0.001-0.293,0.006-0.442
		c0.005-0.148,0.01-0.293,0.015-0.434c0.005-0.073,0.007-0.146,0.007-0.219c0-0.078,0.002-0.153,0.008-0.227v-0.087
		c-0.009-0.058-0.001-0.095,0.023-0.109h0.225c0.039,0,0.08,0.001,0.123,0.003c0.045,0.003,0.089,0.004,0.133,0.004
		c0.121,0,0.244-0.007,0.369-0.022c0.125-0.014,0.234-0.044,0.336-0.087c0.099-0.044,0.182-0.105,0.247-0.183
		c0.066-0.078,0.1-0.183,0.1-0.315c0.005-0.127-0.043-0.214-0.143-0.26c-0.099-0.046-0.217-0.069-0.354-0.069
		c-0.072,0-0.14,0.002-0.201,0.007c-0.061,0.005-0.118,0.012-0.172,0.022h0.008c-0.029,0.005-0.055,0.009-0.076,0.011
		c-0.022,0.003-0.041,0.004-0.055,0.004c-0.121,0.005-0.25,0.009-0.384,0.011c-0.134,0.002-0.259,0.009-0.377,0.019
		c-0.203,0.009-0.404,0.019-0.599,0.028c-0.195,0.01-0.394,0.015-0.598,0.015c-0.058,0-0.125-0.008-0.197-0.023
		c-0.059-0.009-0.117-0.018-0.175-0.025c-0.06-0.007-0.116-0.006-0.175,0.004c-0.049,0.009-0.106,0.035-0.17,0.076
		c-0.063,0.042-0.122,0.091-0.178,0.146c-0.057,0.057-0.102,0.119-0.139,0.187s-0.051,0.131-0.04,0.19
		c0.015,0.078,0.04,0.137,0.08,0.179c0.038,0.041,0.085,0.072,0.14,0.091c0.053,0.02,0.109,0.031,0.167,0.033
		c0.057,0.003,0.112,0.004,0.161,0.004c0.155,0,0.306-0.002,0.455-0.004c0.148-0.002,0.296-0.007,0.442-0.011
		c0.03,0,0.047,0.008,0.052,0.022c0.004,0.016,0.004,0.035,0,0.059v0.044c0,0.063-0.002,0.124-0.004,0.182
		c-0.003,0.058-0.006,0.119-0.012,0.183c-0.013,0.389-0.021,0.774-0.021,1.153v0.38c0,0.068-0.002,0.14-0.004,0.215
		c-0.002,0.076-0.004,0.152-0.004,0.23c0,0.243,0.008,0.482,0.023,0.716c0.015,0.233,0.042,0.443,0.08,0.628
		c0.02,0.088,0.056,0.167,0.11,0.237c0.053,0.071,0.138,0.106,0.256,0.106c0.086,0,0.172-0.029,0.256-0.087
		c0.082-0.059,0.15-0.114,0.204-0.168c0.096-0.097,0.149-0.182,0.156-0.252C22.982,18.23,22.974,18.138,22.95,18.026z"/>
	<polygon points="28.413,18.099 28.414,18.109 28.419,18.118 	"/>
	<path d="M24.966,14.494c0.039,0.045,0.076,0.098,0.109,0.161c0.034,0.063,0.049,0.149,0.045,0.255c0,0.083-0.006,0.174-0.016,0.271
		c-0.009,0.097-0.019,0.199-0.029,0.306c-0.008,0.126-0.019,0.252-0.029,0.376c-0.008,0.124-0.014,0.252-0.014,0.383v0.139
		c0,0.025,0.001,0.047,0.004,0.066c0.002,0.019,0.002,0.041,0.002,0.065v0.248c0,0.327,0.006,0.606,0.015,0.836
		c0.009,0.232,0.032,0.426,0.067,0.581c0.033,0.156,0.084,0.28,0.152,0.372c0.068,0.092,0.16,0.161,0.277,0.208
		c0.117,0.046,0.263,0.076,0.439,0.091c0.174,0.015,0.384,0.022,0.627,0.022c0.297,0,0.565-0.016,0.804-0.048
		c0.238-0.031,0.438-0.078,0.599-0.142c0.16-0.063,0.276-0.144,0.347-0.241c0.069-0.095,0.082-0.207,0.049-0.333
		c-0.02-0.083-0.054-0.15-0.11-0.199c-0.059-0.052-0.143-0.077-0.248-0.077c-0.035,0-0.072,0.004-0.11,0.014l0.015-0.007
		c-0.249,0.058-0.488,0.099-0.719,0.123c-0.232,0.025-0.463,0.04-0.69,0.044c-0.117,0-0.216-0.005-0.296-0.017
		c-0.08-0.012-0.141-0.033-0.179-0.062c-0.021-0.097-0.036-0.245-0.048-0.445c-0.012-0.199-0.018-0.409-0.018-0.628
		c0-0.029,0-0.065,0-0.109c0-0.043,0.002-0.078,0.006-0.102c0.07-0.049,0.188-0.078,0.354-0.088c0.17-0.01,0.398-0.022,0.691-0.037
		c0.083-0.004,0.164-0.01,0.244-0.017c0.081-0.008,0.158-0.024,0.23-0.048h0.125c0.125-0.044,0.229-0.113,0.309-0.208
		c0.083-0.096,0.118-0.191,0.107-0.289c-0.01-0.093-0.05-0.167-0.12-0.223c-0.07-0.055-0.176-0.084-0.318-0.084
		c-0.101,0-0.236,0.006-0.404,0.015c-0.168,0.01-0.343,0.024-0.529,0.044c-0.122,0.01-0.239,0.02-0.351,0.029
		c-0.112,0.011-0.215,0.02-0.314,0.03c-0.014-0.069-0.024-0.14-0.028-0.216c-0.006-0.075-0.008-0.151-0.008-0.23
		c0-0.137,0.008-0.27,0.022-0.399c0.015-0.128,0.027-0.227,0.037-0.295c0.047-0.024,0.109-0.043,0.186-0.055
		c0.075-0.012,0.153-0.022,0.237-0.029c0.082-0.008,0.166-0.013,0.252-0.015c0.085-0.003,0.164-0.004,0.236-0.004h0.219
		c0.025,0,0.053,0.001,0.081,0.004c0.029,0.002,0.056,0.003,0.08,0.003c0.122,0.006,0.241,0.003,0.354-0.007
		c0.114-0.01,0.205-0.041,0.273-0.095c0.079-0.044,0.138-0.106,0.18-0.187c0.04-0.079,0.055-0.151,0.046-0.218
		c-0.015-0.159-0.104-0.261-0.266-0.304c-0.163-0.044-0.397-0.066-0.704-0.066h-0.133c-0.141,0-0.282,0.004-0.427,0.011
		c-0.143,0.007-0.283,0.017-0.419,0.029c-0.137,0.012-0.268,0.026-0.391,0.044c-0.125,0.016-0.232,0.035-0.325,0.054
		c-0.122,0.019-0.204,0.034-0.249,0.043c-0.039,0.01-0.062,0.015-0.072,0.015c-0.069,0.01-0.127,0.022-0.176,0.037
		c-0.049,0.015-0.086,0.035-0.116,0.062c-0.028,0.027-0.051,0.064-0.065,0.113c-0.015,0.049-0.02,0.112-0.015,0.19
		c0.009,0.043,0.024,0.085,0.044,0.124C24.912,14.416,24.937,14.455,24.966,14.494z"/>
	<polygon points="28.209,14.021 28.208,14.025 28.209,14.028 	"/>
	<path d="M31.901,17.995c-0.065-0.063-0.148-0.095-0.245-0.095h-0.007c-0.024-0.009-0.047-0.016-0.066-0.018
		c-0.019-0.003-0.043,0.001-0.072,0.011h0.014c-0.223,0.029-0.411,0.047-0.559,0.051c-0.148,0.006-0.285,0.011-0.412,0.015
		c-0.039,0-0.08,0.002-0.124,0.004c-0.044,0.003-0.085,0.004-0.124,0.004c-0.204,0.015-0.365-0.008-0.482-0.066
		c-0.01-0.102-0.016-0.208-0.018-0.318c-0.003-0.109-0.004-0.237-0.004-0.383v-0.343c0-0.205,0.003-0.416,0.008-0.632
		c0.003-0.217,0.011-0.433,0.021-0.65c0.01-0.216,0.021-0.427,0.033-0.631c0.012-0.204,0.027-0.397,0.047-0.577
		c0-0.034,0.006-0.075,0.014-0.124c0.006-0.024,0.01-0.047,0.012-0.069c0.003-0.022,0.004-0.045,0.004-0.069l-0.008,0.015
		c0-0.033-0.02-0.077-0.059-0.131c-0.038-0.054-0.092-0.103-0.159-0.146c-0.069-0.044-0.147-0.078-0.237-0.103
		c-0.091-0.024-0.181-0.024-0.275,0c-0.024,0.015-0.054,0.034-0.091,0.055c-0.036,0.023-0.072,0.05-0.104,0.084
		c-0.035,0.034-0.064,0.075-0.088,0.121c-0.025,0.046-0.037,0.099-0.037,0.157c0,0.039-0.001,0.077-0.004,0.114
		c-0.002,0.036-0.004,0.074-0.004,0.113c-0.004,0.175-0.01,0.369-0.018,0.58c-0.008,0.211-0.013,0.426-0.019,0.643
		c-0.005,0.216-0.01,0.424-0.015,0.624c-0.004,0.2-0.008,0.373-0.008,0.519c0,0.058-0.001,0.113-0.004,0.167
		c-0.002,0.055-0.002,0.107-0.002,0.161c0,0.077-0.002,0.151-0.004,0.219c-0.003,0.068-0.005,0.134-0.005,0.197
		c0,0.195,0.008,0.368,0.026,0.519c0.017,0.151,0.053,0.282,0.109,0.391c0.055,0.109,0.137,0.198,0.241,0.266
		s0.241,0.117,0.413,0.146c0.068,0.009,0.143,0.017,0.222,0.025c0.081,0.008,0.169,0.011,0.267,0.011
		c0.039,0,0.079-0.001,0.121-0.003c0.041-0.003,0.084-0.004,0.127-0.004c0.258-0.009,0.498-0.025,0.72-0.047
		c0.221-0.022,0.409-0.055,0.562-0.099c0.153-0.044,0.267-0.105,0.34-0.183c0.069-0.074,0.087-0.17,0.065-0.288
		C32.003,18.137,31.966,18.058,31.901,17.995z"/>
	<path d="M32.014,18.209L32.014,18.209c0,0.007-0.001,0.012,0,0.02c0,0,0,0,0,0V18.209z"/>
	<path d="M59.302,16.565c-0.521-0.594-1.265-0.92-2.09-0.92H37.028l0.294-5.119c0-1.721-1.4-3.121-3.121-3.121H7.812
		c-1.721,0-3.121,1.4-3.121,3.145l1,42.925c0,1.721,1.4,3.121,3.121,3.121h1.789c1.59,0,2.789-1.798,2.789-4.183v-3.181
		c0-1.203,0.979-2.182,2.182-2.182H16.5c1.203,0,2.182,0.979,2.182,2.182v3.18c0,1.118,0.434,2.168,1.223,2.958
		c0.79,0.79,1.84,1.226,2.957,1.226h21.74c0.007,0,0.013-0.002,0.02-0.002h7.591c1.615,0,3.041-1.254,3.247-2.855l4.49-34.982
		C60.054,17.937,59.824,17.159,59.302,16.565z M21.32,53.957c-0.412-0.412-0.638-0.96-0.638-1.544v-3.181
		c0-2.306-1.876-4.182-4.182-4.182h-0.928c-2.306,0-4.182,1.876-4.182,4.182v3.181c0,1.408-0.593,2.183-0.789,2.183H8.812
		c-0.618,0-1.121-0.503-1.122-1.145l-1-42.925c0-0.618,0.503-1.121,1.121-1.121h26.389c0.618,0,1.121,0.503,1.123,1.063
		l-1.002,17.423c0,1.721,1.4,3.121,3.121,3.121h8.158c0.617,0,1.119,0.502,1.12,1.073l-1.001,21.39c0,0.615-0.497,1.113-1.109,1.119
		h-5.149c-0.003,0-0.006,0.002-0.01,0.002h-16.59C22.279,54.596,21.731,54.369,21.32,53.957z M53.475,53.484
		c-0.075,0.591-0.666,1.109-1.263,1.109h-4.701c0.13-0.336,0.209-0.695,0.209-1.072l1.001-21.39c0-1.72-1.399-3.12-3.119-3.12
		h-8.158c-0.618,0-1.121-0.503-1.123-1.063l0.593-10.304h20.299c0.242,0,0.451,0.086,0.589,0.242
		c0.137,0.156,0.195,0.374,0.164,0.615L53.475,53.484z"/>
</g>
</svg>
